<svg id="milk" xmlns="http://www.w3.org/2000/svg" viewBox="0 0 45.67 56.2"><defs><style>.cls-1{fill:#f08e8f;}.cls-2{fill:#f2a0a8;}.cls-3{fill:none;stroke:#95203d;stroke-miterlimit:10;stroke-width:3px;}.cls-4{font-size:9.91px;fill:#febec0;font-family:ArialRoundedMTBold, Arial Rounded MT Bold;} #lining_milk { cursor: pointer; } #lining_milk:hover { fill: #FEA2B0 !important; } </style></defs><polygon class="cls-1" points="28.42 54.7 44.17 22.45 28.42 22.45 28.42 54.7"/><polygon class="cls-2" points="1.21 37.02 27.43 25.52 27.43 41.46 1.71 52.73 1.21 37.02"/><g id="lining_milk"><rect class="cls-3" x="1.5" y="22.45" width="26.92" height="32.24"/><polyline class="cls-3" points="28.42 54.7 44.17 54.7 44.17 22.45 28.42 22.45 36.3 11.82 44.17 22.45"/><path class="cls-3" d="M36.3,11.82V3.93s3-2.06-4.44-2.06H11.52s-1.43-2.4-1.43,5v5Z"/><line class="cls-3" x1="10.09" y1="11.82" x2="1.5" y2="22.45"/></g><text class="cls-4" transform="matrix(0.86, -0.36, 0.38, 0.92, 4.43, 47.2)">M</text><text class="cls-4" transform="translate(11.57 44.24) rotate(-22.47) scale(0.94 1)">I</text><text class="cls-4" transform="translate(14.25 43.13) rotate(-22.47) scale(0.94 1)">L</text><text class="cls-4" transform="translate(19.41 41) rotate(-22.47) scale(0.94 1)">K</text></svg>
